<?xml version="1.0" encoding="UTF-8"?>
<svg id="Layer_2" data-name="Layer 2" xmlns="http://www.w3.org/2000/svg" viewBox="0 0 313.73 231.92">
  <defs>
    <style>
      .cls-1, .cls-2, .cls-3 {
        fill: #6db58d;
      }

      .cls-2 {
        font-family: Montserrat-Medium, Montserrat;
        font-size: 20.92px;
        font-variation-settings: 'wght' 500;
        font-weight: 500;
      }

      .cls-3 {
        font-family: Montserrat-BlackItalic, Montserrat;
        font-size: 75.29px;
        font-style: italic;
        font-weight: 800;
        letter-spacing: .1em;
      }

      .cls-4 {
        letter-spacing: .08em;
      }

      .cls-5 {
        letter-spacing: .11em;
      }

      .cls-6 {
        letter-spacing: .1em;
      }

      .cls-7 {
        letter-spacing: .12em;
      }

      .cls-8 {
        letter-spacing: .09em;
      }

      .cls-9 {
        letter-spacing: .1em;
      }
    </style>
  </defs>
  <g id="Layer_1-2" data-name="Layer 1">
    <g>
      <path class="cls-1" d="M161.38,53.16c-.39-3.81.06-7.65,1.19-11.31,3.07-9.9,12.36-29.17,37.64-26.09,17.77,2.17,31.42,27.52,14.08,48.75-17.33,21.23-42.58,37.27-47.73,37.49-3.54.15-5.26-6.77-3.17-15.89,1.85-8.08,6.26-15.35,12.41-20.92,11.46-10.36,28.37-21.01,20.72-29.71-6.93-8.23-28.6,1.3-33.37,22.1,0,0-1.29.31-1.78-4.43Z"/>
      <path class="cls-1" d="M152.46,53.16c.39-3.81-.06-7.65-1.19-11.31-3.07-9.9-12.36-29.17-37.64-26.09-17.77,2.17-31.42,27.52-14.08,48.75,17.33,21.23,42.58,37.27,47.73,37.49,3.54.15,5.26-6.77,3.17-15.89-1.85-8.08-6.26-15.35-12.41-20.92-11.46-10.36-28.37-21.01-20.72-29.71,6.93-8.23,28.6,1.3,33.37,22.1,0,0,1.29.31,1.78-4.43Z"/>
    </g>
    <text class="cls-3" transform="translate(25.36 182.37) scale(.98 1)"><tspan x="0" y="0">BLISS</tspan></text>
    <circle class="cls-1" cx="156.92" cy="11.74" r="11.74"/>
    <text class="cls-2" transform="translate(0 222.44)"><tspan class="cls-8" x="0" y="0">P</tspan><tspan class="cls-6" x="17.03" y="0">URE </tspan><tspan class="cls-4" x="76.8" y="0">C</tspan><tspan class="cls-9" x="93.45" y="0">AR</tspan><tspan class="cls-5" x="128.16" y="0">E</tspan><tspan class="cls-6" x="144.48" y="0">. TRUE BLIS</tspan><tspan class="cls-7" x="289.3" y="0">S</tspan><tspan class="cls-6" x="304.8" y="0">.</tspan></text>
  </g>
</svg>